<svg width="499" height="500" viewBox="0 0 499 500" fill="none" xmlns="http://www.w3.org/2000/svg">
<path d="M175.4 53.75C175.4 53.75 253.17 26.25 329.61 70.32C406.05 114.39 444.71 201.71 477.9 271.66C511.09 341.61 492.15 412.69 433.9 445C375.65 477.31 335.9 429.49 254.14 427C172.38 424.51 150.37 436.2 82.43 390C14.49 343.8 2.07002 234.87 55.49 154.37C108.91 73.87 175.4 53.75 175.4 53.75Z" fill="#7DB86B"/>
<path opacity="0.7" d="M175.4 53.75C175.4 53.75 253.17 26.25 329.61 70.32C406.05 114.39 444.71 201.71 477.9 271.66C511.09 341.61 492.15 412.69 433.9 445C375.65 477.31 335.9 429.49 254.14 427C172.38 424.51 150.37 436.2 82.43 390C14.49 343.8 2.07002 234.87 55.49 154.37C108.91 73.87 175.4 53.75 175.4 53.75Z" fill="white"/>
<path d="M232.4 75.46C232.21 76.04 231.72 76.95 231.21 76.95C230.43 76.95 229.8 75.82 229.8 74.43C229.8 73.04 230.43 71.91 231.21 71.91C231.67 71.91 232.14 72.71 232.34 73.2L237.58 73.05C237.747 69.7489 238.595 66.5181 240.07 63.56L233.17 59.3C232.67 59.74 231.7 60.35 231.22 60.07C230.47 59.64 230.49 58.21 231.22 56.89C231.95 55.57 233.22 54.83 233.95 55.26C234.39 55.51 234.39 56.53 234.32 57.11L241.54 61C243.378 58.2408 245.76 55.8861 248.54 54.08L246.09 49.54C245.49 49.66 244.45 49.7 244.2 49.25C243.81 48.58 244.47 47.47 245.68 46.77C246.89 46.07 248.18 46.05 248.57 46.77C248.8 47.17 248.34 47.97 248.02 48.4L250.76 52.85C253.704 51.3454 256.929 50.4701 260.23 50.28L260.47 42.17C259.83 41.95 258.83 41.42 258.83 40.85C258.83 40 260.07 39.3 261.6 39.3C263.13 39.3 264.38 40 264.38 40.85C264.38 41.36 263.49 41.85 262.96 42.1L263.19 50.28C266.494 50.4702 269.722 51.3454 272.67 52.85L275.38 48.45C274.98 47.99 274.38 47.11 274.68 46.67C275.07 45.99 276.37 46.01 277.57 46.67C278.77 47.33 279.44 48.48 279.05 49.15C278.82 49.55 277.89 49.55 277.37 49.49L274.89 54.08C277.67 55.8861 280.052 58.2408 281.89 61L289 57.15C288.87 56.49 288.83 55.35 289.31 55.07C290.06 54.64 291.31 55.37 292.05 56.69C292.79 58.01 292.83 59.45 292.05 59.87C291.61 60.13 290.73 59.62 290.26 59.27L283.26 63.56C284.739 66.5165 285.587 69.7482 285.75 73.05L291 73.2C291.2 72.62 291.68 71.71 292.19 71.71C292.98 71.71 293.61 72.84 293.61 74.23C293.61 75.62 292.98 76.75 292.19 76.75C291.73 76.75 291.27 75.95 291.06 75.46L285.82 75.61C285.657 78.9117 284.809 82.1435 283.33 85.1L290.23 89.36C290.74 88.92 291.7 88.36 292.23 88.59C292.97 89.02 292.95 90.45 292.23 91.77C291.51 93.09 290.23 93.83 289.49 93.4C289.06 93.15 289.06 92.13 289.13 91.55L281.95 87.67C280.112 90.4291 277.73 92.7839 274.95 94.59L277.4 99.13C278 99.01 279.03 98.97 279.29 99.42C279.68 100.09 279.01 101.2 277.81 101.9C276.61 102.6 275.31 102.62 274.92 101.9C274.69 101.5 275.15 100.7 275.47 100.27L272.73 95.82C269.782 97.3246 266.554 98.1998 263.25 98.39L263.02 106.5C263.65 106.72 264.66 107.26 264.66 107.82C264.66 108.67 263.42 109.37 261.88 109.37C260.34 109.37 259.11 108.67 259.11 107.82C259.11 107.31 259.99 106.82 260.53 106.57L260.29 98.39C256.989 98.1998 253.764 97.3246 250.82 95.82L248.11 100.22C248.51 100.68 249.06 101.56 248.8 102C248.41 102.68 247.12 102.66 245.91 102C244.7 101.34 244.04 100.19 244.43 99.52C244.66 99.12 245.59 99.12 246.12 99.18L248.6 94.59C245.82 92.7839 243.438 90.4291 241.6 87.67L234.48 91.51C234.61 92.17 234.65 93.31 234.16 93.59C233.42 94.02 232.16 93.29 231.43 91.97C230.7 90.65 230.64 89.21 231.43 88.79C231.87 88.53 232.75 89.04 233.21 89.39L240.21 85.1C238.735 82.1419 237.888 78.911 237.72 75.61L232.4 75.46Z" stroke="#787878" stroke-linecap="round" stroke-linejoin="round"/>
<path d="M259.81 55.87C259.786 56.3669 259.911 56.8596 260.17 57.2845C260.429 57.7095 260.809 58.0472 261.261 58.2542C261.713 58.4612 262.217 58.5279 262.708 58.4459C263.199 58.3638 263.653 58.1366 264.014 57.7936C264.374 57.4506 264.623 57.0076 264.73 56.5216C264.836 56.0356 264.794 55.5289 264.61 55.0669C264.425 54.6049 264.107 54.2087 263.695 53.9294C263.283 53.6501 262.797 53.5006 262.3 53.5C261.981 53.492 261.663 53.547 261.365 53.6618C261.068 53.7766 260.795 53.949 260.564 54.1691C260.333 54.3892 260.147 54.6527 260.018 54.9445C259.888 55.2364 259.818 55.5509 259.81 55.87Z" stroke="#787878" stroke-linecap="round" stroke-linejoin="round"/>
<path d="M274.85 75C274.826 75.4969 274.951 75.9896 275.21 76.4145C275.469 76.8395 275.849 77.1772 276.301 77.3842C276.753 77.5912 277.257 77.6579 277.748 77.5758C278.239 77.4938 278.694 77.2666 279.054 76.9236C279.414 76.5806 279.664 76.1376 279.77 75.6516C279.876 75.1656 279.834 74.6589 279.65 74.1969C279.465 73.7349 279.147 73.3387 278.735 73.0594C278.323 72.7801 277.838 72.6306 277.34 72.63C277.021 72.622 276.703 72.677 276.405 72.7918C276.108 72.9066 275.835 73.079 275.604 73.2991C275.373 73.5192 275.187 73.7827 275.058 74.0745C274.928 74.3664 274.858 74.6808 274.85 75V75Z" stroke="#787878" stroke-linecap="round" stroke-linejoin="round"/>
<path d="M263.71 68.88C263.686 69.3769 263.811 69.8696 264.07 70.2945C264.329 70.7195 264.709 71.0572 265.161 71.2642C265.613 71.4712 266.117 71.5379 266.608 71.4558C267.099 71.3737 267.553 71.1466 267.914 70.8036C268.274 70.4606 268.523 70.0176 268.63 69.5316C268.736 69.0456 268.694 68.5389 268.51 68.0769C268.325 67.6149 268.007 67.2187 267.595 66.9394C267.183 66.6601 266.697 66.5106 266.2 66.51C265.881 66.502 265.563 66.557 265.265 66.6718C264.967 66.7866 264.695 66.959 264.464 67.1791C264.233 67.3992 264.047 67.6627 263.918 67.9545C263.788 68.2464 263.718 68.5608 263.71 68.88Z" stroke="#787878" stroke-linecap="round" stroke-linejoin="round"/>
<path d="M269.51 89.5C269.486 89.9969 269.612 90.4896 269.87 90.9145C270.129 91.3395 270.509 91.6772 270.961 91.8842C271.414 92.0912 271.918 92.1579 272.408 92.0758C272.899 91.9938 273.354 91.7666 273.714 91.4236C274.074 91.0806 274.324 90.6376 274.43 90.1516C274.536 89.6656 274.494 89.1589 274.31 88.6969C274.125 88.2349 273.807 87.8387 273.395 87.5594C272.984 87.2801 272.498 87.1306 272 87.13C271.681 87.122 271.363 87.177 271.066 87.2918C270.768 87.4066 270.495 87.579 270.264 87.7991C270.033 88.0192 269.847 88.2827 269.718 88.5745C269.589 88.8664 269.518 89.1808 269.51 89.5V89.5Z" stroke="#787878" stroke-linecap="round" stroke-linejoin="round"/>
<path d="M242.37 79.54C242.346 80.0369 242.472 80.5296 242.73 80.9545C242.989 81.3795 243.369 81.7172 243.821 81.9242C244.273 82.1312 244.777 82.1979 245.268 82.1159C245.759 82.0338 246.214 81.8066 246.574 81.4636C246.934 81.1206 247.184 80.6776 247.29 80.1916C247.396 79.7056 247.354 79.1989 247.17 78.7369C246.985 78.2749 246.667 77.8787 246.255 77.5994C245.843 77.3201 245.358 77.1706 244.86 77.17C244.541 77.162 244.223 77.217 243.925 77.3318C243.628 77.4466 243.355 77.619 243.124 77.8391C242.893 78.0592 242.707 78.3227 242.578 78.6145C242.448 78.9064 242.378 79.2209 242.37 79.54V79.54Z" stroke="#787878" stroke-linecap="round" stroke-linejoin="round"/>
<path d="M260.19 82.78C260.166 83.2773 260.292 83.7704 260.551 84.1956C260.81 84.6208 261.19 84.9585 261.643 85.1652C262.096 85.3719 262.601 85.4381 263.092 85.3552C263.583 85.2723 264.037 85.0441 264.397 84.7002C264.757 84.3562 265.006 83.9122 265.111 83.4255C265.216 82.9388 265.173 82.4318 264.987 81.97C264.801 81.5081 264.481 81.1126 264.068 80.8345C263.655 80.5564 263.168 80.4086 262.67 80.41C262.027 80.3966 261.405 80.6385 260.94 81.0827C260.475 81.5269 260.206 82.1372 260.19 82.78V82.78Z" stroke="#787878" stroke-linecap="round" stroke-linejoin="round"/>
<path d="M252.13 73.3C252.106 73.7973 252.231 74.2904 252.491 74.7156C252.75 75.1408 253.13 75.4785 253.583 75.6852C254.036 75.8919 254.541 75.9581 255.032 75.8752C255.522 75.7923 255.977 75.5641 256.337 75.2201C256.697 74.8762 256.946 74.4322 257.051 73.9455C257.156 73.4588 257.113 72.9518 256.927 72.4899C256.741 72.0281 256.421 71.6326 256.008 71.3545C255.595 71.0764 255.108 70.9286 254.61 70.93C253.967 70.9166 253.345 71.1585 252.88 71.6027C252.415 72.0469 252.146 72.6572 252.13 73.3V73.3Z" stroke="#787878" stroke-linecap="round" stroke-linejoin="round"/>
<path d="M246.11 62.26C246.086 62.7569 246.211 63.2495 246.47 63.6745C246.728 64.0995 247.108 64.4372 247.561 64.6442C248.013 64.8512 248.517 64.9179 249.008 64.8358C249.498 64.7538 249.953 64.5266 250.314 64.1836C250.674 63.8406 250.923 63.3976 251.03 62.9116C251.136 62.4256 251.094 61.9189 250.909 61.4569C250.725 60.9949 250.407 60.5987 249.995 60.3194C249.583 60.0401 249.097 59.8906 248.6 59.89C248.281 59.882 247.963 59.937 247.665 60.0518C247.367 60.1666 247.095 60.339 246.864 60.5591C246.633 60.7792 246.447 61.0427 246.318 61.3345C246.188 61.6264 246.118 61.9408 246.11 62.26V62.26Z" stroke="#787878" stroke-linecap="round" stroke-linejoin="round"/>
<path d="M251.86 90.69C251.838 91.187 251.965 91.6792 252.226 92.1031C252.486 92.527 252.867 92.8632 253.321 93.0684C253.774 93.2735 254.278 93.3382 254.768 93.2541C255.259 93.17 255.713 92.941 256.071 92.5965C256.43 92.2521 256.678 91.808 256.782 91.3215C256.886 90.8351 256.842 90.3286 256.656 89.8673C256.47 89.406 256.15 89.0112 255.737 88.7336C255.324 88.456 254.837 88.3085 254.34 88.31C254.021 88.3034 253.703 88.3597 253.406 88.4757C253.109 88.5917 252.837 88.7652 252.607 88.9862C252.376 89.2072 252.192 89.4715 252.064 89.7638C251.936 90.0561 251.866 90.3709 251.86 90.69V90.69Z" stroke="#787878" stroke-linecap="round" stroke-linejoin="round"/>
<path d="M272.24 60.11C272.216 60.6069 272.342 61.0996 272.6 61.5245C272.859 61.9495 273.239 62.2872 273.691 62.4942C274.144 62.7012 274.648 62.7679 275.138 62.6858C275.629 62.6038 276.084 62.3766 276.444 62.0336C276.804 61.6906 277.054 61.2476 277.16 60.7616C277.266 60.2756 277.224 59.7689 277.04 59.3069C276.855 58.8449 276.537 58.4487 276.125 58.1694C275.714 57.8901 275.228 57.7406 274.73 57.74C274.411 57.732 274.093 57.787 273.796 57.9018C273.498 58.0166 273.225 58.189 272.994 58.4091C272.763 58.6292 272.577 58.8927 272.448 59.1845C272.319 59.4764 272.248 59.7908 272.24 60.11V60.11Z" stroke="#787878" stroke-linecap="round" stroke-linejoin="round"/>
<path d="M39.92 260.49C39.76 260.94 39.39 261.64 39 261.64C38.39 261.64 37.91 260.77 37.91 259.7C37.91 258.63 38.39 257.75 39 257.75C39.35 257.75 39.71 258.37 39.87 258.75L43.87 258.63C44.0016 256.084 44.6552 253.593 45.79 251.31L40.47 248.03C40.08 248.37 39.33 248.84 38.96 248.62C38.39 248.29 38.4 247.19 38.96 246.17C39.52 245.15 40.5 244.58 41.07 244.91C41.41 245.11 41.41 245.91 41.35 246.34L46.89 249.34C48.3013 247.215 50.1321 245.401 52.27 244.01L50.39 240.51C49.92 240.6 49.12 240.62 48.93 240.28C48.63 239.76 49.14 238.9 50.07 238.37C51 237.84 52 237.82 52.3 238.37C52.48 238.68 52.12 239.3 51.87 239.62L54.06 243C56.3292 241.837 58.8147 241.156 61.36 241L61.55 234.75C61.05 234.58 60.28 234.17 60.28 233.75C60.28 233.08 61.28 232.55 62.42 232.55C63.56 232.55 64.56 233.08 64.56 233.75C64.56 234.14 63.88 234.53 63.46 234.75L63.65 241.05C66.1949 241.208 68.6799 241.889 70.95 243.05L73 239.62C72.69 239.27 72.27 238.62 72.46 238.25C72.77 237.73 73.76 237.74 74.7 238.25C75.64 238.76 76.14 239.65 75.84 240.17C75.66 240.47 74.94 240.47 74.54 240.42L72.62 243.97C74.7631 245.358 76.5978 247.173 78.01 249.3L83.5 246.3C83.4 245.79 83.37 244.91 83.74 244.69C84.32 244.36 85.26 244.93 85.85 245.95C86.44 246.97 86.46 248.07 85.85 248.4C85.51 248.6 84.85 248.2 84.47 247.93L79.11 251.24C80.2449 253.523 80.8984 256.014 81.03 258.56L85.03 258.68C85.18 258.23 85.56 257.53 85.95 257.53C86.55 257.53 87.04 258.4 87.04 259.47C87.04 260.54 86.55 261.42 85.95 261.42C85.6 261.42 85.24 260.8 85.08 260.42L81.08 260.54C80.9484 263.086 80.2949 265.577 79.16 267.86L84.48 271.14C84.87 270.8 85.61 270.33 85.99 270.55C86.56 270.88 86.55 271.98 85.99 273C85.43 274.02 84.45 274.59 83.88 274.26C83.54 274.06 83.54 273.26 83.59 272.83L78.06 269.83C76.6478 271.957 74.8132 273.772 72.67 275.16L74.56 278.67C75.03 278.57 75.82 278.55 76.02 278.89C76.32 279.41 75.81 280.27 74.88 280.8C73.95 281.33 72.95 281.35 72.65 280.8C72.47 280.49 72.83 279.87 73.08 279.55L70.96 276.12C68.6868 277.282 66.1983 277.963 63.65 278.12L63.47 284.37C63.96 284.54 64.74 284.95 64.74 285.37C64.74 286.03 63.74 286.56 62.6 286.56C61.46 286.56 60.46 286.03 60.46 285.37C60.46 284.97 61.14 284.58 61.56 284.37L61.37 278.06C58.8247 277.904 56.3392 277.223 54.07 276.06L51.98 279.45C52.29 279.8 52.71 280.45 52.51 280.82C52.21 281.34 51.21 281.33 50.28 280.82C49.35 280.31 48.84 279.43 49.14 278.9C49.32 278.6 50.04 278.6 50.44 278.65L52.35 275.1C50.2121 273.709 48.3813 271.895 46.97 269.77L41.48 272.77C41.58 273.28 41.61 274.16 41.24 274.38C40.66 274.71 39.72 274.15 39.13 273.12C38.54 272.09 38.52 271 39.13 270.67C39.46 270.47 40.13 270.87 40.5 271.14L45.87 267.83C44.7351 265.547 44.0816 263.056 43.95 260.51L39.92 260.49Z" stroke="#787878" stroke-linecap="round" stroke-linejoin="round"/>
<path d="M61 245.39C60.982 245.773 61.0792 246.153 61.2789 246.48C61.4787 246.807 61.7718 247.067 62.1207 247.227C62.4696 247.386 62.8581 247.437 63.2363 247.373C63.6145 247.31 63.965 247.134 64.2426 246.87C64.5202 246.605 64.7122 246.264 64.7938 245.889C64.8755 245.514 64.8431 245.124 64.7008 244.768C64.5585 244.411 64.3128 244.106 63.9954 243.891C63.678 243.676 63.3035 243.56 62.92 243.56C62.6736 243.553 62.4283 243.595 62.1982 243.684C61.9681 243.772 61.7578 243.906 61.5794 244.076C61.4009 244.246 61.2579 244.449 61.1585 244.675C61.059 244.901 61.0052 245.144 61 245.39V245.39Z" stroke="#787878" stroke-linecap="round" stroke-linejoin="round"/>
<path d="M72.6499 260.17C72.6319 260.553 72.7291 260.933 72.9288 261.26C73.1286 261.587 73.4218 261.847 73.7706 262.007C74.1195 262.166 74.5081 262.217 74.8862 262.153C75.2644 262.09 75.6149 261.914 75.8925 261.65C76.1701 261.385 76.3621 261.044 76.4437 260.669C76.5254 260.294 76.493 259.904 76.3507 259.548C76.2084 259.191 75.9627 258.886 75.6453 258.671C75.3279 258.456 74.9534 258.34 74.5699 258.34C74.0729 258.329 73.592 258.516 73.2322 258.859C72.8723 259.202 72.663 259.673 72.6499 260.17V260.17Z" stroke="#787878" stroke-linecap="round" stroke-linejoin="round"/>
<path d="M64.06 255.42C64.0421 255.803 64.1392 256.183 64.339 256.51C64.5387 256.837 64.8319 257.097 65.1808 257.257C65.5297 257.416 65.9182 257.467 66.2964 257.403C66.6745 257.34 67.025 257.164 67.3026 256.9C67.5802 256.635 67.7722 256.294 67.8539 255.919C67.9356 255.544 67.9032 255.154 67.7609 254.798C67.6186 254.441 67.3729 254.136 67.0555 253.921C66.7381 253.706 66.3635 253.59 65.9801 253.59C65.7336 253.583 65.4883 253.625 65.2583 253.714C65.0282 253.802 64.8179 253.936 64.6394 254.106C64.461 254.276 64.3179 254.479 64.2185 254.705C64.1191 254.931 64.0652 255.174 64.06 255.42V255.42Z" stroke="#787878" stroke-linecap="round" stroke-linejoin="round"/>
<path d="M68.54 271.32C68.5221 271.703 68.6192 272.083 68.8189 272.41C69.0187 272.737 69.3119 272.997 69.6608 273.157C70.0096 273.316 70.3982 273.367 70.7764 273.303C71.1546 273.24 71.505 273.064 71.7826 272.8C72.0602 272.535 72.2522 272.194 72.3339 271.819C72.4156 271.444 72.3832 271.054 72.2409 270.698C72.0986 270.341 71.8529 270.036 71.5355 269.821C71.2181 269.606 70.8435 269.49 70.46 269.49C69.9631 269.479 69.4821 269.666 69.1223 270.009C68.7625 270.352 68.5531 270.823 68.54 271.32V271.32Z" stroke="#787878" stroke-linecap="round" stroke-linejoin="round"/>
<path d="M47.6098 263.64C47.5919 264.023 47.689 264.403 47.8888 264.73C48.0885 265.057 48.3817 265.317 48.7306 265.477C49.0795 265.636 49.468 265.687 49.8462 265.623C50.2244 265.56 50.5748 265.384 50.8524 265.12C51.13 264.855 51.322 264.514 51.4037 264.139C51.4854 263.764 51.453 263.374 51.3107 263.018C51.1684 262.661 50.9227 262.356 50.6053 262.141C50.2879 261.926 49.9133 261.81 49.5299 261.81C49.0329 261.799 48.5519 261.986 48.1921 262.329C47.8323 262.672 47.6229 263.143 47.6098 263.64V263.64Z" stroke="#787878" stroke-linecap="round" stroke-linejoin="round"/>
<path d="M61.3398 266.14C61.3218 266.523 61.419 266.903 61.6187 267.23C61.8185 267.557 62.1117 267.817 62.4606 267.977C62.8094 268.136 63.198 268.187 63.5762 268.123C63.9543 268.06 64.3048 267.884 64.5824 267.62C64.86 267.355 65.052 267.014 65.1337 266.639C65.2154 266.264 65.183 265.874 65.0407 265.518C64.8984 265.161 64.6527 264.856 64.3353 264.641C64.0179 264.426 63.6433 264.31 63.2598 264.31C62.7629 264.299 62.2819 264.486 61.9221 264.829C61.5623 265.172 61.3529 265.643 61.3398 266.14V266.14Z" stroke="#787878" stroke-linecap="round" stroke-linejoin="round"/>
<path d="M55.1299 258.83C55.1119 259.215 55.2103 259.597 55.4123 259.925C55.6143 260.254 55.9106 260.514 56.2624 260.671C56.6143 260.829 57.0055 260.877 57.3851 260.81C57.7647 260.742 58.1151 260.561 58.3907 260.292C58.6662 260.022 58.8542 259.675 58.9302 259.297C59.0061 258.919 58.9665 258.527 58.8164 258.172C58.6663 257.817 58.4127 257.515 58.0887 257.306C57.7648 257.097 57.3853 256.99 56.9999 257C56.5115 257.002 56.0433 257.195 55.6943 257.536C55.3453 257.878 55.1428 258.342 55.1299 258.83V258.83Z" stroke="#787878" stroke-linecap="round" stroke-linejoin="round"/>
<path d="M50.4902 250.31C50.4722 250.693 50.5694 251.073 50.7691 251.4C50.9689 251.727 51.2621 251.987 51.611 252.147C51.9598 252.306 52.3484 252.357 52.7266 252.293C53.1047 252.23 53.4552 252.054 53.7328 251.79C54.0104 251.525 54.2024 251.184 54.2841 250.809C54.3657 250.434 54.3334 250.044 54.1911 249.688C54.0488 249.331 53.8031 249.026 53.4857 248.811C53.1683 248.596 52.7937 248.48 52.4102 248.48C51.9133 248.469 51.4323 248.656 51.0725 248.999C50.7127 249.342 50.5033 249.813 50.4902 250.31V250.31Z" stroke="#787878" stroke-linecap="round" stroke-linejoin="round"/>
<path d="M54.9199 272.23C54.8999 272.613 54.9953 272.994 55.1938 273.323C55.3922 273.651 55.6846 273.913 56.0332 274.073C56.3818 274.234 56.7706 274.287 57.1494 274.224C57.5282 274.162 57.8796 273.988 58.1582 273.723C58.4368 273.459 58.6298 273.118 58.7124 272.743C58.795 272.368 58.7632 271.977 58.6213 271.62C58.4794 271.264 58.2338 270.958 57.9163 270.742C57.5987 270.526 57.2238 270.41 56.8399 270.41C56.3447 270.399 55.8652 270.584 55.5056 270.925C55.1461 271.266 54.9356 271.735 54.9199 272.23V272.23Z" stroke="#787878" stroke-linecap="round" stroke-linejoin="round"/>
<path d="M70.6401 248.65C70.6222 249.033 70.7193 249.413 70.919 249.74C71.1188 250.067 71.412 250.327 71.7609 250.487C72.1097 250.646 72.4983 250.697 72.8765 250.633C73.2547 250.57 73.6051 250.394 73.8827 250.13C74.1603 249.865 74.3523 249.524 74.434 249.149C74.5156 248.774 74.4833 248.384 74.341 248.028C74.1987 247.671 73.953 247.366 73.6356 247.151C73.3182 246.936 72.9436 246.82 72.5601 246.82C72.0632 246.809 71.5822 246.996 71.2224 247.339C70.8626 247.682 70.6532 248.153 70.6401 248.65V248.65Z" stroke="#787878" stroke-linecap="round" stroke-linejoin="round"/>
<path d="M246.64 308.38C246.54 308.67 246.3 309.12 246.05 309.12C245.8 309.12 245.34 308.56 245.34 307.86C245.34 307.16 245.66 306.6 246.05 306.6C246.28 306.6 246.51 307 246.61 307.25L249.23 307.17C249.313 305.522 249.735 303.908 250.47 302.43L247.03 300.31C246.77 300.53 246.29 300.83 246.03 300.69C245.77 300.55 245.67 299.77 246.03 299.11C246.39 298.45 247.03 298.11 247.4 298.29C247.61 298.42 247.62 298.93 247.58 299.22L251.16 301.15C252.078 299.775 253.265 298.602 254.65 297.7L253.42 295.43C253.12 295.49 252.61 295.51 252.48 295.29C252.35 295.07 252.62 294.4 253.22 294.05C253.82 293.7 254.47 293.69 254.66 294.05C254.85 294.41 254.55 294.65 254.39 294.86L255.76 297.08C257.23 296.336 258.836 295.901 260.48 295.8L260.6 291.8C260.28 291.69 259.78 291.43 259.78 291.15C259.78 290.87 260.4 290.37 261.17 290.37C261.94 290.37 262.55 290.72 262.55 291.15C262.55 291.4 262.11 291.66 261.84 291.77L261.96 295.85C263.607 295.95 265.217 296.386 266.69 297.13L268.04 294.94C267.84 294.71 267.57 294.27 267.7 294.05C267.83 293.83 268.54 293.72 269.14 294.05C269.74 294.38 270.07 294.95 269.88 295.29C269.69 295.63 269.3 295.49 269.04 295.46L267.8 297.75C269.182 298.652 270.366 299.826 271.28 301.2L274.84 299.29C274.77 298.96 274.75 298.39 274.99 298.29C275.23 298.19 275.99 298.44 276.36 299.1C276.73 299.76 276.75 300.47 276.36 300.69C276.14 300.81 275.7 300.56 275.47 300.38L271.99 302.52C272.729 303.997 273.154 305.611 273.24 307.26L275.82 307.34C275.92 307.05 276.16 306.59 276.42 306.59C276.68 306.59 277.12 307.16 277.12 307.85C277.12 308.54 276.81 309.11 276.42 309.11C276.19 309.11 275.95 308.71 275.85 308.47L273.24 308.54C273.154 310.189 272.729 311.803 271.99 313.28L275.44 315.4C275.69 315.18 276.17 314.88 276.44 315.02C276.71 315.16 276.81 315.95 276.44 316.61C276.07 317.27 275.44 317.61 275.08 317.42C274.86 317.29 274.86 316.78 274.9 316.5L271.31 314.56C270.4 315.937 269.215 317.112 267.83 318.01L269.05 320.28C269.35 320.22 269.87 320.2 269.99 320.42C270.11 320.64 269.86 321.32 269.26 321.66C268.66 322 268.01 322.02 267.81 321.66C267.61 321.3 267.93 321.06 268.09 320.85L266.72 318.63C265.248 319.377 263.638 319.813 261.99 319.91L261.87 323.96C262.19 324.07 262.69 324.34 262.69 324.62C262.69 324.9 262.07 325.39 261.31 325.39C260.55 325.39 259.92 325.04 259.92 324.62C259.92 324.36 260.36 324.11 260.63 323.99L260.51 319.91C258.865 319.814 257.258 319.378 255.79 318.63L254.43 320.82C254.63 321.05 254.91 321.49 254.78 321.71C254.65 321.93 253.94 322.04 253.34 321.71C252.74 321.38 252.4 320.81 252.6 320.47C252.8 320.13 253.18 320.27 253.44 320.31L254.68 318.01C253.293 317.111 252.105 315.937 251.19 314.56L247.64 316.48C247.7 316.81 247.72 317.38 247.48 317.48C247.24 317.58 246.48 317.33 246.12 316.66C245.76 315.99 245.72 315.29 246.12 315.08C246.34 314.95 246.78 315.21 247.01 315.38L250.48 313.24C249.745 311.762 249.323 310.148 249.24 308.5L246.64 308.38Z" stroke="#787878" stroke-linecap="round" stroke-linejoin="round"/>
<path d="M260.32 298.6C260.306 298.85 260.367 299.098 260.496 299.312C260.624 299.527 260.814 299.698 261.041 299.804C261.268 299.909 261.521 299.944 261.768 299.904C262.015 299.864 262.244 299.751 262.426 299.579C262.608 299.407 262.734 299.185 262.788 298.941C262.842 298.697 262.822 298.442 262.73 298.209C262.638 297.977 262.478 297.777 262.271 297.636C262.064 297.496 261.82 297.42 261.57 297.42C261.248 297.412 260.936 297.531 260.702 297.752C260.468 297.974 260.33 298.278 260.32 298.6V298.6Z" stroke="#787878" stroke-linecap="round" stroke-linejoin="round"/>
<path d="M267.83 308.17C267.82 308.417 267.884 308.662 268.014 308.872C268.144 309.082 268.334 309.249 268.56 309.351C268.785 309.452 269.036 309.484 269.28 309.442C269.524 309.4 269.749 309.286 269.928 309.115C270.106 308.943 270.229 308.723 270.281 308.481C270.333 308.239 270.312 307.987 270.22 307.758C270.127 307.528 269.969 307.332 269.764 307.193C269.559 307.054 269.317 306.98 269.07 306.98C268.91 306.976 268.751 307.004 268.602 307.062C268.453 307.119 268.317 307.206 268.202 307.317C268.087 307.427 267.995 307.56 267.931 307.706C267.867 307.853 267.833 308.01 267.83 308.17Z" stroke="#787878" stroke-linecap="round" stroke-linejoin="round"/>
<path d="M263.51 306.27C262.825 306.27 262.27 305.742 262.27 305.09C262.27 304.438 262.825 303.91 263.51 303.91C264.195 303.91 264.75 304.438 264.75 305.09C264.75 305.742 264.195 306.27 263.51 306.27Z" stroke="#787878" stroke-linecap="round" stroke-linejoin="round"/>
<path d="M265.17 315.38C265.158 315.627 265.22 315.873 265.349 316.084C265.478 316.296 265.667 316.464 265.892 316.567C266.118 316.671 266.369 316.704 266.613 316.663C266.857 316.622 267.084 316.509 267.263 316.338C267.443 316.168 267.567 315.947 267.62 315.705C267.673 315.463 267.652 315.21 267.56 314.98C267.468 314.75 267.31 314.553 267.105 314.414C266.9 314.275 266.658 314.2 266.41 314.2C266.251 314.196 266.093 314.223 265.944 314.281C265.796 314.338 265.661 314.424 265.545 314.533C265.43 314.643 265.338 314.774 265.273 314.919C265.209 315.065 265.174 315.221 265.17 315.38V315.38Z" stroke="#787878" stroke-linecap="round" stroke-linejoin="round"/>
<path d="M251.62 310.41C251.608 310.657 251.67 310.903 251.799 311.114C251.928 311.326 252.117 311.494 252.342 311.597C252.568 311.701 252.819 311.734 253.063 311.693C253.307 311.652 253.534 311.539 253.713 311.368C253.893 311.197 254.017 310.977 254.07 310.735C254.123 310.493 254.102 310.24 254.01 310.01C253.918 309.78 253.76 309.583 253.555 309.444C253.35 309.305 253.108 309.23 252.86 309.23C252.54 309.225 252.23 309.345 251.998 309.566C251.766 309.787 251.631 310.09 251.62 310.41V310.41Z" stroke="#787878" stroke-linecap="round" stroke-linejoin="round"/>
<path d="M260.51 312C260.498 312.247 260.561 312.493 260.689 312.704C260.818 312.916 261.007 313.084 261.233 313.187C261.458 313.291 261.709 313.324 261.953 313.283C262.198 313.242 262.424 313.129 262.604 312.958C262.783 312.787 262.907 312.567 262.96 312.325C263.013 312.083 262.992 311.83 262.9 311.6C262.809 311.37 262.65 311.173 262.445 311.034C262.24 310.895 261.998 310.82 261.75 310.82C261.43 310.815 261.121 310.935 260.889 311.156C260.657 311.377 260.521 311.68 260.51 312V312Z" stroke="#787878" stroke-linecap="round" stroke-linejoin="round"/>
<path d="M256.49 307.3C256.478 307.547 256.541 307.793 256.669 308.005C256.798 308.216 256.987 308.384 257.213 308.488C257.438 308.591 257.689 308.624 257.933 308.583C258.178 308.542 258.404 308.429 258.584 308.258C258.763 308.088 258.887 307.867 258.94 307.625C258.993 307.383 258.972 307.131 258.88 306.9C258.789 306.67 258.63 306.473 258.425 306.334C258.22 306.195 257.978 306.12 257.73 306.12C257.571 306.116 257.413 306.143 257.265 306.201C257.116 306.258 256.981 306.343 256.866 306.453C256.751 306.563 256.658 306.694 256.594 306.839C256.529 306.985 256.494 307.141 256.49 307.3V307.3Z" stroke="#787878" stroke-linecap="round" stroke-linejoin="round"/>
<path d="M253.49 301.79C253.48 302.037 253.544 302.282 253.674 302.492C253.804 302.702 253.994 302.869 254.22 302.971C254.445 303.072 254.696 303.104 254.94 303.062C255.183 303.02 255.409 302.906 255.587 302.735C255.766 302.563 255.889 302.343 255.941 302.101C255.993 301.859 255.972 301.607 255.879 301.378C255.787 301.148 255.628 300.952 255.424 300.813C255.219 300.674 254.977 300.6 254.73 300.6C254.57 300.596 254.411 300.624 254.262 300.681C254.113 300.739 253.977 300.826 253.862 300.937C253.747 301.047 253.654 301.18 253.59 301.326C253.527 301.473 253.492 301.63 253.49 301.79Z" stroke="#787878" stroke-linecap="round" stroke-linejoin="round"/>
<path d="M256.35 316C256.338 316.249 256.401 316.497 256.531 316.71C256.661 316.923 256.852 317.093 257.079 317.197C257.306 317.301 257.559 317.334 257.805 317.293C258.051 317.252 258.28 317.138 258.461 316.965C258.641 316.793 258.767 316.571 258.82 316.327C258.873 316.083 258.852 315.828 258.76 315.597C258.667 315.365 258.507 315.166 258.3 315.026C258.094 314.885 257.85 314.81 257.6 314.81C257.44 314.806 257.28 314.834 257.131 314.891C256.981 314.949 256.845 315.035 256.728 315.146C256.612 315.257 256.519 315.389 256.454 315.535C256.389 315.682 256.354 315.84 256.35 316V316Z" stroke="#787878" stroke-linecap="round" stroke-linejoin="round"/>
<path d="M266.53 300.71C266.518 300.957 266.581 301.203 266.709 301.415C266.838 301.626 267.027 301.794 267.253 301.898C267.478 302.001 267.729 302.034 267.973 301.993C268.218 301.952 268.444 301.839 268.624 301.668C268.803 301.498 268.927 301.277 268.98 301.035C269.033 300.793 269.012 300.541 268.92 300.31C268.829 300.08 268.67 299.883 268.465 299.744C268.26 299.605 268.018 299.53 267.77 299.53C267.611 299.526 267.453 299.553 267.305 299.611C267.157 299.668 267.021 299.753 266.906 299.863C266.791 299.973 266.698 300.104 266.634 300.249C266.569 300.395 266.534 300.551 266.53 300.71Z" stroke="#787878" stroke-linecap="round" stroke-linejoin="round"/>
<path d="M422.8 412.38C422.7 412.67 422.46 413.13 422.2 413.13C421.94 413.13 421.5 412.56 421.5 411.87C421.5 411.18 421.81 410.61 422.2 410.61C422.43 410.61 422.66 411.01 422.77 411.25L425.38 411.18C425.466 409.531 425.892 407.917 426.63 406.44L423.18 404.31C422.93 404.53 422.45 404.84 422.18 404.7C421.91 404.56 421.82 403.77 422.18 403.11C422.54 402.45 423.18 402.11 423.54 402.3C423.76 402.42 423.76 402.93 423.72 403.22L427.31 405.16C428.224 403.783 429.408 402.606 430.79 401.7L429.57 399.44C429.27 399.5 428.75 399.52 428.63 399.29C428.51 399.06 428.76 398.4 429.36 398.05C429.96 397.7 430.61 397.7 430.81 398.05C430.92 398.24 430.69 398.65 430.53 398.86L431.9 401.08C433.371 400.33 434.982 399.894 436.63 399.8L436.75 395.75C436.43 395.64 435.93 395.37 435.93 395.09C435.93 394.81 436.55 394.32 437.31 394.32C438.07 394.32 438.7 394.66 438.7 395.09C438.7 395.34 438.25 395.6 437.99 395.71L438.11 399.8C439.755 399.896 441.362 400.332 442.83 401.08L444.19 398.88C443.99 398.65 443.71 398.22 443.84 397.99C443.97 397.76 444.68 397.67 445.28 397.99C445.88 398.31 446.22 398.9 446.02 399.23C445.82 399.56 445.44 399.43 445.18 399.4L443.94 401.7C445.327 402.599 446.515 403.773 447.43 405.15L451 403.24C450.94 402.91 450.92 402.34 451.16 402.24C451.4 402.14 452.16 402.39 452.52 403.05C452.88 403.71 452.91 404.43 452.52 404.64C452.13 404.85 451.86 404.51 451.63 404.34L448.16 406.48C448.895 407.958 449.317 409.572 449.4 411.22L451.98 411.29C452.08 411 452.33 410.55 452.58 410.55C452.83 410.55 453.29 411.11 453.29 411.81C453.29 412.51 453 413 452.63 413C452.4 413 452.17 412.6 452.07 412.36L449.45 412.44C449.366 414.085 448.944 415.695 448.21 417.17L451.65 419.3C451.9 419.08 452.39 418.77 452.65 418.91C452.91 419.05 453.01 419.84 452.65 420.5C452.29 421.16 451.65 421.5 451.28 421.31C450.91 421.12 451.06 420.68 451.1 420.39L447.52 418.46C446.593 419.842 445.396 421.023 444 421.93L445.22 424.19C445.52 424.13 446.04 424.12 446.17 424.34C446.3 424.56 446.03 425.23 445.43 425.58C444.83 425.93 444.18 425.93 443.99 425.58C443.8 425.23 444.1 424.98 444.26 424.76L442.89 422.54C441.423 423.292 439.816 423.731 438.17 423.83L438.05 427.83C438.37 427.94 438.87 428.21 438.87 428.49C438.87 428.77 438.25 429.26 437.48 429.26C436.71 429.26 436.1 428.92 436.1 428.49C436.1 428.24 436.54 427.98 436.81 427.87L436.69 423.79C435.042 423.687 433.432 423.248 431.96 422.5L430.61 424.7C430.81 424.93 431.08 425.37 430.95 425.59C430.82 425.81 430.11 425.92 429.51 425.59C428.91 425.26 428.58 424.68 428.77 424.35C428.96 424.02 429.35 424.15 429.61 424.18L430.85 421.89C429.47 420.985 428.287 419.812 427.37 418.44L423.81 420.35C423.88 420.68 423.9 421.25 423.66 421.35C423.42 421.45 422.66 421.2 422.29 420.54C421.92 419.88 421.9 419.16 422.29 418.95C422.51 418.82 422.95 419.08 423.18 419.25L426.66 417.11C425.922 415.633 425.496 414.019 425.41 412.37L422.8 412.38Z" stroke="#787878" stroke-linecap="round" stroke-linejoin="round"/>
<path d="M436.48 402.6C436.468 402.847 436.53 403.093 436.659 403.304C436.788 403.516 436.977 403.684 437.202 403.787C437.428 403.891 437.679 403.924 437.923 403.883C438.167 403.842 438.394 403.729 438.573 403.558C438.753 403.388 438.877 403.167 438.93 402.925C438.983 402.683 438.962 402.43 438.87 402.2C438.778 401.97 438.62 401.773 438.415 401.634C438.21 401.495 437.968 401.42 437.72 401.42C437.561 401.416 437.403 401.443 437.255 401.501C437.106 401.558 436.971 401.644 436.855 401.753C436.74 401.863 436.648 401.994 436.583 402.139C436.519 402.285 436.484 402.441 436.48 402.6V402.6Z" stroke="#787878" stroke-linecap="round" stroke-linejoin="round"/>
<path d="M444 412.17C443.984 412.421 444.044 412.672 444.173 412.888C444.301 413.105 444.492 413.277 444.721 413.383C444.949 413.489 445.204 413.524 445.453 413.483C445.701 413.442 445.931 413.326 446.113 413.152C446.294 412.978 446.419 412.752 446.471 412.506C446.523 412.26 446.499 412.003 446.402 411.771C446.306 411.538 446.141 411.34 445.93 411.203C445.719 411.065 445.472 410.994 445.22 411C444.905 411 444.602 411.121 444.375 411.339C444.147 411.558 444.013 411.855 444 412.17V412.17Z" stroke="#787878" stroke-linecap="round" stroke-linejoin="round"/>
<path d="M439.66 410.27C438.975 410.27 438.42 409.742 438.42 409.09C438.42 408.438 438.975 407.91 439.66 407.91C440.345 407.91 440.9 408.438 440.9 409.09C440.9 409.742 440.345 410.27 439.66 410.27Z" stroke="#787878" stroke-linecap="round" stroke-linejoin="round"/>
<path d="M441.32 419.39C441.308 419.64 441.372 419.888 441.502 420.101C441.632 420.315 441.824 420.484 442.051 420.588C442.279 420.691 442.532 420.724 442.779 420.682C443.026 420.64 443.254 420.525 443.434 420.352C443.615 420.179 443.739 419.955 443.791 419.711C443.844 419.466 443.821 419.211 443.727 418.98C443.633 418.748 443.471 418.55 443.263 418.411C443.055 418.272 442.81 418.198 442.56 418.2C442.238 418.195 441.927 418.317 441.695 418.54C441.463 418.762 441.328 419.068 441.32 419.39Z" stroke="#787878" stroke-linecap="round" stroke-linejoin="round"/>
<path d="M427.77 414.42C427.756 414.671 427.818 414.92 427.947 415.135C428.077 415.35 428.268 415.521 428.496 415.626C428.724 415.73 428.978 415.764 429.226 415.723C429.473 415.681 429.702 415.566 429.883 415.392C430.065 415.218 430.189 414.994 430.241 414.748C430.293 414.503 430.27 414.247 430.174 414.015C430.079 413.783 429.916 413.585 429.707 413.447C429.497 413.308 429.251 413.236 429 413.24C428.682 413.237 428.375 413.359 428.145 413.58C427.915 413.8 427.78 414.102 427.77 414.42V414.42Z" stroke="#787878" stroke-linecap="round" stroke-linejoin="round"/>
<path d="M436.66 416C436.646 416.25 436.707 416.498 436.836 416.712C436.965 416.927 437.154 417.098 437.381 417.204C437.608 417.309 437.861 417.344 438.108 417.304C438.355 417.264 438.584 417.151 438.766 416.979C438.948 416.807 439.074 416.585 439.129 416.341C439.183 416.097 439.162 415.842 439.07 415.609C438.978 415.377 438.818 415.177 438.611 415.037C438.405 414.896 438.16 414.82 437.91 414.82C437.588 414.812 437.276 414.931 437.042 415.152C436.808 415.374 436.671 415.678 436.66 416Z" stroke="#787878" stroke-linecap="round" stroke-linejoin="round"/>
<path d="M432.64 411.3C432.626 411.55 432.688 411.799 432.817 412.014C432.946 412.228 433.136 412.399 433.364 412.505C433.591 412.61 433.845 412.644 434.092 412.603C434.339 412.562 434.568 412.448 434.75 412.275C434.931 412.103 435.057 411.879 435.11 411.635C435.163 411.39 435.141 411.135 435.047 410.902C434.954 410.67 434.792 410.471 434.584 410.332C434.376 410.192 434.131 410.118 433.88 410.12C433.56 410.115 433.25 410.235 433.018 410.456C432.786 410.677 432.651 410.98 432.64 411.3V411.3Z" stroke="#787878" stroke-linecap="round" stroke-linejoin="round"/>
<path d="M429.64 405.79C429.628 406.037 429.691 406.283 429.819 406.494C429.948 406.706 430.137 406.874 430.363 406.977C430.588 407.081 430.839 407.114 431.083 407.073C431.327 407.032 431.554 406.919 431.733 406.748C431.913 406.577 432.037 406.357 432.09 406.115C432.143 405.873 432.122 405.62 432.03 405.39C431.938 405.16 431.78 404.963 431.575 404.824C431.37 404.685 431.128 404.61 430.88 404.61C430.56 404.605 430.25 404.725 430.018 404.946C429.786 405.167 429.651 405.47 429.64 405.79Z" stroke="#787878" stroke-linecap="round" stroke-linejoin="round"/>
<path d="M432.51 420C432.498 420.247 432.561 420.493 432.689 420.704C432.818 420.916 433.007 421.084 433.233 421.187C433.458 421.291 433.709 421.324 433.953 421.283C434.198 421.242 434.424 421.129 434.604 420.958C434.783 420.788 434.907 420.567 434.96 420.325C435.013 420.083 434.992 419.83 434.9 419.6C434.809 419.37 434.65 419.173 434.445 419.034C434.24 418.895 433.998 418.82 433.75 418.82C433.591 418.816 433.433 418.843 433.285 418.901C433.136 418.958 433.001 419.044 432.886 419.153C432.771 419.263 432.678 419.394 432.614 419.539C432.549 419.685 432.514 419.841 432.51 420V420Z" stroke="#787878" stroke-linecap="round" stroke-linejoin="round"/>
<path d="M442.68 404.72C442.668 404.97 442.731 405.218 442.862 405.431C442.992 405.645 443.183 405.814 443.411 405.918C443.639 406.021 443.892 406.054 444.139 406.012C444.385 405.97 444.614 405.855 444.794 405.682C444.975 405.509 445.099 405.285 445.151 405.041C445.203 404.796 445.181 404.541 445.087 404.31C444.993 404.078 444.831 403.88 444.623 403.741C444.415 403.602 444.17 403.528 443.92 403.53C443.598 403.525 443.287 403.647 443.055 403.87C442.823 404.092 442.688 404.398 442.68 404.72Z" stroke="#787878" stroke-linecap="round" stroke-linejoin="round"/>
<path d="M347.63 477.3C300.41 477.3 262.13 474.166 262.13 470.3C262.13 466.434 300.41 463.3 347.63 463.3C394.85 463.3 433.13 466.434 433.13 470.3C433.13 474.166 394.85 477.3 347.63 477.3Z" fill="#263238" stroke="#263238" stroke-linecap="round" stroke-linejoin="round"/>
<path d="M276.08 178.12C276.08 178.12 267.6 163.22 266.91 161.84C266.22 160.46 253.61 150.61 251.77 149.69C249.93 148.77 249.25 150.84 249.71 152.21C250.17 153.58 257.51 160.01 257.51 160.01C257.51 160.01 252.92 168.95 252.92 170.1C252.92 171.25 257.97 177.67 260.72 179.96C263.47 182.25 268.72 182.25 268.72 182.25L272.62 186.15L276.08 178.12Z" fill="white" stroke="#263238" stroke-linecap="round" stroke-linejoin="round"/>
<path d="M249 165.51C249 165.51 246.94 168.26 247.86 170.56C248.78 172.86 253.86 174.68 254.51 174.23C255.16 173.78 254.96 172.39 254.51 171.47C254.06 170.55 249 165.51 249 165.51Z" fill="white" stroke="#263238" stroke-linecap="round" stroke-linejoin="round"/>
<path d="M252.46 161.61C252.46 161.61 248.79 162.76 249.02 165.51C249.25 168.26 253.61 172.16 255.9 172.39C258.19 172.62 257.97 171.47 256.82 169.39L252.46 161.61Z" fill="white" stroke="#263238" stroke-linecap="round" stroke-linejoin="round"/>
<path d="M257.51 160C257.51 160 253.38 158.39 252.51 161.6C251.64 164.81 254.58 168.71 256.64 170.55C258.7 172.39 260.31 170.32 259.64 168.48C258.97 166.64 257.51 160 257.51 160Z" fill="white" stroke="#263238" stroke-linecap="round" stroke-linejoin="round"/>
<path d="M265.53 164.6C265.53 164.6 257.05 162.53 255.21 163.22C253.37 163.91 248.79 168.49 248.56 169.41C248.33 170.33 248.79 171.25 249.71 171.25C250.63 171.25 256.82 169.41 256.82 169.41C256.82 169.41 262.55 176.75 265.3 177.21C266.657 177.491 268.049 177.568 269.43 177.44" fill="white"/>
<path d="M265.53 164.6C265.53 164.6 257.05 162.53 255.21 163.22C253.37 163.91 248.79 168.49 248.56 169.41C248.33 170.33 248.79 171.25 249.71 171.25C250.63 171.25 256.82 169.41 256.82 169.41C256.82 169.41 262.55 176.75 265.3 177.21C266.657 177.491 268.049 177.568 269.43 177.44" stroke="#263238" stroke-linecap="round" stroke-linejoin="round"/>
<path d="M324.93 148.82C324.93 148.82 318.25 150.21 315.75 155.49C313.25 160.77 300.55 200.33 300.55 200.33L275.24 173.91L265.51 193.1C265.51 193.1 300.83 233.7 303 234.81C304.51 235.465 306.152 235.757 307.795 235.662C309.439 235.566 311.036 235.086 312.46 234.26C315.79 232.31 326.64 206.73 327.19 205.61C324.19 211.61 327.11 209.24 334.42 155" fill="white"/>
<path d="M324.93 148.82C324.93 148.82 318.25 150.21 315.75 155.49C313.25 160.77 300.55 200.33 300.55 200.33L275.24 173.91L265.51 193.1C265.51 193.1 300.83 233.7 303 234.81C304.51 235.465 306.152 235.757 307.795 235.662C309.439 235.566 311.036 235.086 312.46 234.26C315.79 232.31 326.64 206.73 327.19 205.61C324.19 211.61 327.11 209.24 334.42 155" stroke="#263238" stroke-linecap="round" stroke-linejoin="round"/>
<path d="M363.37 425.43C363.37 425.43 362.56 433.5 364.58 440.36C366.524 447.621 367.74 455.058 368.21 462.56C368.21 466.19 367.81 468.21 365.39 469.82C362.97 471.43 317.39 469.82 317.39 469.82C316.434 469.422 315.618 468.75 315.043 467.888C314.468 467.027 314.161 466.015 314.16 464.98C314.155 463.217 314.644 461.488 315.572 459.989C316.5 458.49 317.83 457.281 319.41 456.5C322.64 454.89 338.78 447.22 341.2 443.19C343.62 439.16 344.03 436.32 344.83 433.5C345.4 431.246 345.804 428.953 346.04 426.64L363.37 425.43Z" fill="white" stroke="#263238" stroke-linecap="round" stroke-linejoin="round"/>
<path d="M345.95 429.03L363.11 432.17L363.3 426.81L347.8 426.26L345.95 429.03Z" fill="#263238" stroke="#263238" stroke-linecap="round" stroke-linejoin="round"/>
<path d="M319.38 456.5C322.61 454.89 338.75 447.22 341.17 443.19C341.793 442.154 342.341 441.074 342.81 439.96C343.11 440.03 350.49 441.66 352.47 446.01C353.492 448.077 354.302 450.241 354.89 452.47C354.89 452.47 362.56 452.06 365.39 449.64C365.75 449.33 366.12 449.03 366.49 448.75C367.379 453.308 367.954 457.923 368.21 462.56C368.21 466.19 367.81 468.21 365.39 469.82C362.97 471.43 317.39 469.82 317.39 469.82C316.434 469.422 315.618 468.75 315.043 467.888C314.468 467.027 314.161 466.015 314.16 464.98C314.152 463.22 314.637 461.493 315.559 459.995C316.482 458.496 317.805 457.286 319.38 456.5V456.5Z" fill="#7DB86B" stroke="#263238" stroke-linecap="round" stroke-linejoin="round"/>
<path d="M367.17 461.71C361.08 464.321 354.605 465.922 348 466.45C336.81 467.4 321.26 467.59 318.79 467.59C317.379 467.605 315.974 467.413 314.62 467.02" stroke="#263238" stroke-linecap="round" stroke-linejoin="round"/>
<path d="M339.48 464.27C341.412 464.127 343.316 463.723 345.14 463.07C345.271 463.024 345.392 462.953 345.496 462.86C345.599 462.767 345.684 462.655 345.744 462.53C345.805 462.404 345.84 462.268 345.847 462.129C345.855 461.99 345.836 461.851 345.79 461.72C345.744 461.589 345.672 461.468 345.58 461.364C345.487 461.26 345.375 461.176 345.249 461.115C345.124 461.055 344.988 461.02 344.849 461.012C344.71 461.004 344.571 461.024 344.44 461.07C342.826 461.639 341.145 461.999 339.44 462.14C339.161 462.14 338.894 462.251 338.697 462.448C338.5 462.644 338.39 462.912 338.39 463.19C338.39 463.469 338.5 463.736 338.697 463.932C338.894 464.129 339.161 464.24 339.44 464.24L339.48 464.27Z" fill="#263238"/>
<path d="M327.72 465.79C329.831 465.702 331.932 465.438 334 465C334.272 464.943 334.51 464.78 334.662 464.548C334.813 464.315 334.867 464.032 334.81 463.76C334.753 463.488 334.59 463.25 334.357 463.098C334.125 462.946 333.842 462.893 333.57 462.95C331.642 463.346 329.686 463.59 327.72 463.68C327.441 463.68 327.174 463.791 326.977 463.988C326.78 464.184 326.67 464.452 326.67 464.73C326.67 465.008 326.78 465.276 326.977 465.472C327.174 465.669 327.441 465.78 327.72 465.78V465.79Z" fill="#263238"/>
<path d="M319.49 466.08C320.72 466.08 321.72 465.99 321.93 465.97C322.069 465.964 322.206 465.93 322.332 465.868C322.457 465.806 322.568 465.718 322.658 465.611C322.747 465.504 322.813 465.379 322.852 465.244C322.89 465.11 322.899 464.968 322.88 464.83C322.849 464.555 322.714 464.302 322.501 464.125C322.289 463.948 322.016 463.86 321.74 463.88C319.799 464.091 317.837 463.987 315.93 463.57C315.798 463.523 315.659 463.503 315.52 463.51C315.381 463.517 315.244 463.552 315.119 463.612C314.993 463.672 314.88 463.756 314.787 463.859C314.693 463.963 314.621 464.084 314.575 464.215C314.528 464.346 314.508 464.486 314.515 464.625C314.522 464.764 314.557 464.9 314.617 465.026C314.676 465.152 314.761 465.265 314.864 465.358C314.967 465.451 315.088 465.523 315.22 465.57C316.607 465.963 318.048 466.135 319.49 466.08V466.08Z" fill="#263238"/>
<path d="M338 456.87C338 457.55 339 458.1 340.27 458.1C341.54 458.1 342.55 457.55 342.55 456.87C342.55 456.19 341.55 455.64 340.27 455.64C338.99 455.64 338 456.19 338 456.87Z" fill="#263238"/>
<path d="M331.73 453.75C331.85 454.42 332.95 454.75 334.19 454.57C335.43 454.39 336.33 453.64 336.19 452.96C336.05 452.28 334.97 451.96 333.73 452.14C332.49 452.32 331.62 453.08 331.73 453.75Z" fill="#263238"/>
<path d="M323.4 456.64C323.53 457.31 324.63 457.64 325.87 457.41C327.11 457.18 327.99 456.41 327.87 455.77C327.75 455.13 326.63 454.77 325.4 454.99C324.17 455.21 323.26 456 323.4 456.64Z" fill="#263238"/>
<path d="M329.42 458.58C329.42 459.26 330.42 459.81 331.7 459.81C332.98 459.81 333.97 459.26 333.97 458.58C333.97 457.9 332.97 457.34 331.7 457.34C330.43 457.34 329.42 457.89 329.42 458.58Z" fill="#263238"/>
<path d="M319 459.83C319.09 460.5 320.17 460.91 321.42 460.75C322.67 460.59 323.6 459.9 323.51 459.22C323.42 458.54 322.34 458.13 321.09 458.3C319.84 458.47 318.92 459.15 319 459.83Z" fill="#263238"/>
<path d="M382.53 425.43C382.53 425.43 381.72 433.5 383.74 440.36C385.68 447.622 386.895 455.058 387.37 462.56C387.37 466.19 386.97 468.21 384.54 469.82C382.11 471.43 336.54 469.82 336.54 469.82C335.584 469.422 334.768 468.75 334.193 467.888C333.619 467.027 333.311 466.015 333.31 464.98C333.305 463.217 333.794 461.488 334.722 459.989C335.65 458.49 336.98 457.281 338.56 456.5C341.78 454.89 357.93 447.22 360.35 443.19C362.77 439.16 363.17 436.32 363.98 433.5C364.55 431.246 364.955 428.953 365.19 426.64L382.53 425.43Z" fill="white" stroke="#263238" stroke-linecap="round" stroke-linejoin="round"/>
<path d="M365.14 429.4L382.48 432.35L382.67 427.74L365.33 427.37L365.14 429.4Z" fill="#263238" stroke="#263238" stroke-linecap="round" stroke-linejoin="round"/>
<path d="M338.54 456.5C341.76 454.89 357.91 447.22 360.33 443.19C360.962 442.168 361.52 441.102 362 440C362.29 440.07 369.68 441.7 371.66 446.05C372.682 448.117 373.492 450.281 374.08 452.51C374.08 452.51 381.75 452.1 384.57 449.68C384.94 449.37 385.31 449.07 385.68 448.79C386.569 453.348 387.144 457.963 387.4 462.6C387.4 466.23 387 468.25 384.57 469.86C382.14 471.47 336.57 469.86 336.57 469.86C335.614 469.462 334.798 468.79 334.223 467.928C333.648 467.067 333.341 466.055 333.34 465.02C333.323 463.256 333.801 461.522 334.72 460.016C335.639 458.509 336.963 457.291 338.54 456.5V456.5Z" fill="#7DB86B" stroke="#263238" stroke-linecap="round" stroke-linejoin="round"/>
<path d="M386.33 461.71C380.243 464.32 373.772 465.921 367.17 466.45C355.98 467.4 340.42 467.59 337.96 467.59C336.55 467.605 335.145 467.413 333.79 467.02" stroke="#263238" stroke-linecap="round" stroke-linejoin="round"/>
<path d="M358.63 464.27C360.562 464.128 362.466 463.724 364.29 463.07C364.421 463.025 364.543 462.954 364.647 462.862C364.751 462.77 364.835 462.658 364.896 462.533C364.957 462.408 364.993 462.273 365.001 462.134C365.009 461.995 364.99 461.856 364.945 461.725C364.9 461.594 364.829 461.473 364.737 461.369C364.645 461.265 364.533 461.18 364.408 461.119C364.283 461.058 364.148 461.023 364.009 461.014C363.87 461.006 363.731 461.025 363.6 461.07C361.986 461.638 360.305 461.997 358.6 462.14C358.322 462.14 358.055 462.251 357.858 462.448C357.661 462.644 357.55 462.912 357.55 463.19C357.55 463.469 357.661 463.736 357.858 463.932C358.055 464.129 358.322 464.24 358.6 464.24L358.63 464.27Z" fill="#263238"/>
<path d="M346.87 465.79C348.985 465.706 351.089 465.445 353.16 465.01C353.432 464.953 353.67 464.79 353.822 464.558C353.974 464.325 354.027 464.042 353.97 463.77C353.913 463.498 353.75 463.26 353.518 463.108C353.285 462.956 353.002 462.903 352.73 462.96C350.799 463.356 348.839 463.6 346.87 463.69C346.591 463.69 346.324 463.801 346.127 463.998C345.93 464.194 345.82 464.462 345.82 464.74C345.82 465.018 345.93 465.286 346.127 465.482C346.324 465.679 346.591 465.79 346.87 465.79V465.79Z" fill="#263238"/>
<path d="M338.65 466.08C339.88 466.08 340.88 465.99 341.09 465.97C341.367 465.945 341.622 465.81 341.801 465.597C341.979 465.383 342.065 465.107 342.04 464.83C342.009 464.555 341.874 464.302 341.661 464.125C341.449 463.948 341.176 463.86 340.9 463.88C338.959 464.091 336.997 463.986 335.09 463.57C334.824 463.476 334.533 463.491 334.279 463.612C334.025 463.733 333.829 463.95 333.735 464.215C333.641 464.48 333.656 464.772 333.777 465.026C333.898 465.28 334.114 465.476 334.38 465.57C335.767 465.963 337.208 466.135 338.65 466.08V466.08Z" fill="#263238"/>
<path d="M359.39 458.1C358.131 458.1 357.11 457.549 357.11 456.87C357.11 456.191 358.131 455.64 359.39 455.64C360.649 455.64 361.67 456.191 361.67 456.87C361.67 457.549 360.649 458.1 359.39 458.1Z" fill="#263238"/>
<path d="M350.89 453.75C351.01 454.42 352.11 454.75 353.35 454.57C354.59 454.39 355.49 453.64 355.35 452.96C355.21 452.28 354.13 451.96 352.89 452.14C351.65 452.32 350.77 453.08 350.89 453.75Z" fill="#263238"/>
<path d="M342.55 456.64C342.68 457.31 343.79 457.64 345.02 457.41C346.25 457.18 347.15 456.41 347.02 455.77C346.89 455.13 345.78 454.77 344.55 454.99C343.32 455.21 342.42 456 342.55 456.64Z" fill="#263238"/>
<path d="M348.58 458.58C348.58 459.26 349.58 459.81 350.86 459.81C352.14 459.81 353.13 459.26 353.13 458.58C353.13 457.9 352.13 457.34 350.86 457.34C349.59 457.34 348.58 457.89 348.58 458.58Z" fill="#263238"/>
<path d="M338.17 459.83C338.26 460.5 339.34 460.91 340.59 460.75C341.84 460.59 342.77 459.9 342.68 459.22C342.59 458.54 341.51 458.13 340.26 458.3C339.01 458.47 338.08 459.15 338.17 459.83Z" fill="#263238"/>
<path d="M319.16 300.72L340.15 428.66H363.56L361.14 302.34L319.16 300.72Z" fill="#7DB86B" stroke="#263238" stroke-linecap="round" stroke-linejoin="round"/>
<path d="M342.14 418.03L342.62 422.06" stroke="#263238" stroke-linecap="round" stroke-linejoin="round"/>
<path d="M329.34 310.93L341.52 412.87" stroke="#263238" stroke-linecap="round" stroke-linejoin="round"/>
<path d="M400.28 296.28L388.58 429.06H361.54L353.87 300.72L400.28 296.28Z" fill="#7DB86B" stroke="#263238" stroke-linecap="round" stroke-linejoin="round"/>
<path d="M367.17 323.47L367.09 319.31" stroke="#263238" stroke-linecap="round" stroke-linejoin="round"/>
<path d="M369.18 426.96L367.28 329.13" stroke="#263238" stroke-linecap="round" stroke-linejoin="round"/>
<path d="M372.22 306.34L355.18 315.98L319.96 304.99L320.63 301.18L375.59 302.08L372.22 306.34Z" fill="#263238" stroke="#263238" stroke-linecap="round" stroke-linejoin="round"/>
<path d="M318.25 164.67L300.83 299.6L344.21 310.73L346.15 303.73L348.93 310.41L411.22 300.16C411.22 300.16 413.33 158.63 413.33 157.24C413.33 155.85 404.56 151.78 400.11 149.83C395.66 147.88 372.57 135.26 372.57 135.26H352.57L320.22 150.77" fill="white"/>
<path d="M318.25 164.67L300.83 299.6L344.21 310.73L346.15 303.73L348.93 310.41L411.22 300.16C411.22 300.16 413.33 158.63 413.33 157.24C413.33 155.85 404.56 151.78 400.11 149.83C395.66 147.88 372.57 135.26 372.57 135.26H352.57L320.22 150.77" stroke="#263238" stroke-linecap="round" stroke-linejoin="round"/>
<path d="M375.82 63.5C380.587 64.4633 385.104 66.3968 389.092 69.1803C393.08 71.9638 396.452 75.5377 399 79.68C407.35 93.51 406.57 128.85 406.57 128.85C395.682 131.219 384.529 132.137 373.4 131.58C357.25 130.65 342.34 128.71 338.4 126.88C335.909 125.675 333.619 124.093 331.61 122.19C331.61 122.19 341.53 102.87 341.79 98.19C342.05 93.51 337.09 90.62 340.48 80.96C343.87 71.3 358.85 58.28 375.82 63.5Z" fill="#263238" stroke="#263238" stroke-linecap="round" stroke-linejoin="round"/>
<path d="M379 138.6L387 164.74L372.54 171.13L385.36 180C385.36 180 376.46 197.24 369.51 206.14C362.56 215.04 351.44 225.05 351.44 225.05C351.44 225.05 340.87 202.25 338.09 193.63C335.31 185.01 332.25 173.63 332.25 173.63L342.25 169.18L333.91 162.5L346.7 136.92C346.7 136.92 363.12 125.81 379 138.6Z" fill="white" stroke="#263238" stroke-linecap="round" stroke-linejoin="round"/>
<path d="M375.35 136.93C375.35 136.93 373.68 152.78 370.9 162.79C368.12 172.8 353.11 214 353.11 214C353.11 214 349.49 166.45 349.49 158.66C349.49 150.87 352.55 135.3 352.55 135.3L375.35 136.93Z" fill="#7DB86B" stroke="#263238" stroke-linecap="round" stroke-linejoin="round"/>
<path d="M375.35 125.81C375.35 125.81 374.52 148.33 372.85 150.81C371.18 153.29 365.9 158.04 359.5 157.81C353.92 157.56 350.6 150.81 350.6 148.91C350.6 147.01 350.05 127.77 350.05 127.77L375.35 125.81Z" fill="white" stroke="#263238" stroke-linecap="round" stroke-linejoin="round"/>
<path d="M374.34 142.16C371.378 141.768 368.509 140.851 365.87 139.45C360.044 136.335 354.698 132.394 350 127.75L375.3 125.81C375.3 125.81 375 134.89 374.34 142.16Z" fill="#263238" stroke="#263238" stroke-linecap="round" stroke-linejoin="round"/>
<path d="M385.46 106.26C385.46 106.26 373.97 102.08 366.66 93.47C359.35 84.86 359.36 81.47 359.36 81.47L345 95.82C345 95.82 341.09 114.35 342.39 120.35C343.69 126.35 350.65 132.16 359.27 133.72C367.89 135.28 377.89 128.72 381.02 124.27C382.837 121.842 383.923 118.945 384.15 115.92C384.15 115.92 392.24 115.39 392.24 109.65C392.24 103.91 385.46 106.26 385.46 106.26Z" fill="white" stroke="#263238" stroke-linecap="round" stroke-linejoin="round"/>
<path d="M369.67 103.65C368.731 103.65 367.97 102.481 367.97 101.04C367.97 99.5985 368.731 98.43 369.67 98.43C370.609 98.43 371.37 99.5985 371.37 101.04C371.37 102.481 370.609 103.65 369.67 103.65Z" fill="#263238"/>
<path d="M352.31 102.08C351.371 102.08 350.61 100.911 350.61 99.47C350.61 98.0285 351.371 96.86 352.31 96.86C353.249 96.86 354.01 98.0285 354.01 99.47C354.01 100.911 353.249 102.08 352.31 102.08Z" fill="#263238"/>
<path d="M357.53 101.3C357.53 101.3 358.53 103.65 357.01 104.43C355.49 105.21 352.31 106.52 353.88 108.09C355.45 109.66 357.01 110.7 359.62 109.91" stroke="#263238" stroke-linecap="round" stroke-linejoin="round"/>
<path d="M355.18 113.31C357.586 113.783 360.041 113.958 362.49 113.83C366.14 113.57 367.49 112.52 367.49 112.52C367.49 112.52 364.88 120.09 361.75 119.31C358.62 118.53 355.18 113.31 355.18 113.31Z" fill="#263238" stroke="#263238" stroke-linecap="round" stroke-linejoin="round"/>
<path d="M362.597 99.8251C361.895 95.4853 364.844 91.3981 369.184 90.696C373.523 89.9939 377.611 92.9427 378.313 97.2825C379.015 101.622 376.066 105.71 371.726 106.412C367.386 107.114 363.299 104.165 362.597 99.8251Z" stroke="#263238" stroke-linecap="round" stroke-linejoin="round"/>
<path d="M342.852 99.8681C341.846 95.5888 344.498 91.3035 348.778 90.2966C353.057 89.2898 357.342 91.9426 358.349 96.222C359.356 100.501 356.703 104.787 352.424 105.793C348.145 106.8 343.859 104.147 342.852 99.8681Z" stroke="#263238" stroke-linecap="round" stroke-linejoin="round"/>
<path d="M362.49 98.56C362.49 98.56 360.4 96.34 358.57 98.56" stroke="#263238" stroke-linecap="round" stroke-linejoin="round"/>
<path d="M353.88 93.47C352.861 93.2827 351.811 93.3785 350.843 93.747C349.874 94.1155 349.026 94.7426 348.39 95.56" stroke="#263238" stroke-linecap="round" stroke-linejoin="round"/>
<path d="M305.453 203.234L371.248 206.959L368.78 250.549L302.986 246.824L305.453 203.234Z" fill="#263238" stroke="#263238" stroke-linecap="round" stroke-linejoin="round"/>
<path d="M352.55 230.92C352.55 230.92 342.82 229.53 340.04 228.69C337.26 227.85 334.2 230.08 330.04 232.59C325.88 235.1 322.53 235.37 323.04 236.76C323.162 237.308 323.492 237.788 323.96 238.099C324.427 238.41 324.997 238.529 325.55 238.43C326.94 238.43 333.61 237.04 333.61 237.04C333.61 237.04 325.55 244.82 324.71 245.38C323.87 245.94 320.82 247.6 320.82 248.99C320.82 250.38 323.88 250.38 324.99 250.66C326.1 250.94 330.27 251.77 332.78 252.66C335.29 253.55 341.4 252.66 342.51 251.82C343.62 250.98 353.63 243.2 355.3 242.65C356.97 242.1 352.55 230.92 352.55 230.92Z" fill="white" stroke="#263238" stroke-linecap="round" stroke-linejoin="round"/>
<path d="M405.94 153.89C405.94 153.89 416.94 157.52 418.33 160.58C419.72 163.64 426.24 237.31 425.13 239.82C424.02 242.33 352.55 252.33 352.55 252.33L351.16 229.81L406.5 214.51" fill="white"/>
<path d="M405.94 153.89C405.94 153.89 416.94 157.52 418.33 160.58C419.72 163.64 426.24 237.31 425.13 239.82C424.02 242.33 352.55 252.33 352.55 252.33L351.16 229.81L406.5 214.51" stroke="#263238" stroke-linecap="round" stroke-linejoin="round"/>
<path d="M399.27 216.74L402.88 171.69" stroke="#263238" stroke-linecap="round" stroke-linejoin="round"/>
<path d="M350.9 254.32L346.15 303.77" stroke="#263238" stroke-linecap="round" stroke-linejoin="round"/>
</svg>
